<svg id="Capa_1" data-name="Capa 1" xmlns="http://www.w3.org/2000/svg" xmlns:xlink="http://www.w3.org/1999/xlink" viewBox="0 0 525.71 260.53"><defs><style>.cls-1{font-size:77.22px;}.cls-1,.cls-3{fill:#12192c;font-family:Titillium-Bold, Titillium Bold;font-weight:700;}.cls-2{letter-spacing:-0.02em;}.cls-3{font-size:34.62px;}.cls-4{letter-spacing:0em;}.cls-5{fill:url(#New_Gradient_Swatch_6);}</style><linearGradient id="New_Gradient_Swatch_6" x1="-372.12" y1="133.98" x2="-111.72" y2="133.98" gradientTransform="translate(403.88 257.35)" gradientUnits="userSpaceOnUse"><stop offset="0" stop-color="#6fc7da"/><stop offset="1" stop-color="#203c7b"/></linearGradient></defs><text class="cls-1" transform="translate(287.42 139.88)"><tspan class="cls-2">C</tspan><tspan x="43.16" y="0">OMBE</tspan></text><text class="cls-3" transform="translate(304.81 176.63)">FORE<tspan class="cls-4" x="76.36" y="0">C</tspan><tspan x="96.58" y="0">AST AI</tspan></text><path class="cls-5" d="M222.71,403.83a12.65,12.65,0,1,1-17.88,0A12.65,12.65,0,0,1,222.71,403.83Zm-69.13-91.06h0c16.09,5.33,17.05,13.48,14,22.71h0a15.23,15.23,0,1,0,22-8.39h0c-8.1-4.66-12.76-11.05-5.6-24.6A26.53,26.53,0,0,0,162,261.07h-.13a26.52,26.52,0,0,0-8.32,51.7Zm100.43,24a26.52,26.52,0,1,0-37.51,0A26.52,26.52,0,0,0,254,336.73ZM222.8,441.28c-15.66,8.29-22.53,3.06-27.31-5.9a15.21,15.21,0,1,0-9.1,21.59c9.75-2.91,18.32-1.74,23.42,15.21a26.52,26.52,0,1,0,13-30.9Zm42.84-76.47a26.53,26.53,0,1,0,26.52,26.52A26.52,26.52,0,0,0,265.64,364.81ZM101.13,341.39c15.66-8.29,22.52-3.06,27.3,5.9a15,15,0,0,0,2.74,3.72,15.2,15.2,0,1,0,6.37-25.31c-9.75,2.91-18.32,1.74-23.42-15.21a26.52,26.52,0,1,0-13,30.9Zm.08,19.56a12.65,12.65,0,1,0,17.89,0A12.65,12.65,0,0,0,101.21,361Zm-16.4,30.38a26.53,26.53,0,1,0-26.52,26.53A26.52,26.52,0,0,0,84.81,391.33ZM148.18,414a26.37,26.37,0,0,0,12.94,3.82h.13c.51,0,1,0,1.55,0,.35,0,.71,0,1.06-.05l1-.08c.67-.07,1.34-.17,2-.29l.17,0a26.37,26.37,0,0,0,20.76-19.74c4.85-13.62,12.21-14.56,20.62-11.89h0a15.22,15.22,0,1,0-8.64-22h0c-4.43,7.83-10.62,12.16-24,4.92a26.4,26.4,0,0,0-12.94-3.82h-.13c-.52,0-1,0-1.55,0-.36,0-.71,0-1.07.06l-1,.08c-.66.07-1.33.17-2,.29l-.17,0a26.37,26.37,0,0,0-20.76,19.74c-4.85,13.62-12.21,14.56-20.62,11.89h0a15.2,15.2,0,1,0,6.16,25.24,15,15,0,0,0,2.49-3.29v0C128.62,411.09,134.81,406.76,148.18,414Zm22.16,55.9h0c-16.1-5.33-17.06-13.48-14-22.71h0a15.22,15.22,0,1,0-22,8.4h0c8.11,4.66,12.77,11.05,5.61,24.6a26.53,26.53,0,0,0,22,41.41H162a26.52,26.52,0,0,0,8.31-51.7Zm-100.42-24a26.52,26.52,0,1,0,37.51,0A26.51,26.51,0,0,0,69.92,445.94Z" transform="translate(-31.76 -261.07)"/></svg>